<svg version="1.1" viewBox="0.0 0.0 249.70078740157481 224.35433070866142" fill="none" stroke="none" stroke-linecap="square" stroke-miterlimit="10" xmlns:xlink="http://www.w3.org/1999/xlink" xmlns="http://www.w3.org/2000/svg"><clipPath id="p.0"><path d="m0 0l249.70079 0l0 224.35432l-249.70079 0l0 -224.35432z" clip-rule="nonzero"/></clipPath><g clip-path="url(#p.0)"><path fill="#000000" fill-opacity="0.0" d="m0 0l249.70079 0l0 224.35432l-249.70079 0z" fill-rule="evenodd"/><path fill="#000000" fill-opacity="0.0" d="m14.136483 112.17585l0 0c0 -58.324745 49.876183 -105.60629 111.40157 -105.60629l0 0c29.545532 0 57.880966 11.126347 78.77281 30.93137c20.891846 19.805023 32.62877 46.666397 32.62877 74.67493l0 0c0 58.324745 -49.87619 105.6063 -111.40158 105.6063l0 0c-61.52539 0 -111.40157 -47.281555 -111.40157 -105.6063z" fill-rule="evenodd"/><path stroke="#000000" stroke-width="8.0" stroke-linejoin="round" stroke-linecap="butt" d="m14.136483 112.17585l0 0c0 -58.324745 49.876183 -105.60629 111.40157 -105.60629l0 0c29.545532 0 57.880966 11.126347 78.77281 30.93137c20.891846 19.805023 32.62877 46.666397 32.62877 74.67493l0 0c0 58.324745 -49.87619 105.6063 -111.40158 105.6063l0 0c-61.52539 0 -111.40157 -47.281555 -111.40157 -105.6063z" fill-rule="evenodd"/><path fill="#000000" fill-opacity="0.0" d="m0 20.412073l222.80315 0l0 183.52756l-222.80315 0z" fill-rule="evenodd"/><path fill="#000000" d="m73.39267 168.18773q-4.46875 -0.28125 -8.21875 -2.875q-3.734375 -2.59375 -7.484375 -5.1875q-2.453125 -2.453125 -3.890625 -5.25q-1.4375 -2.8125 -2.296875 -7.421875q-0.578125 -2.734375 0 -7.046875q0.578125 -4.328125 1.859375 -8.640625q1.296875 -4.3281326 2.453125 -6.9218826q1.734375 -4.03125 4.390625 -8.703125q2.671875 -4.6875 5.328125 -8.9375q2.671875 -4.25 4.25 -6.828125q1.015625 -1.015625 0.9375 -1.078125q-0.078125 -0.078125 -0.078125 -0.078125q0 -0.71875 1.515625 -3.671875q1.515625 -2.953125 2.671875 -5.265625q2.15625 -2.296875 2.4375 -3.734375q0.296875 -1.4375 -0.421875 -2.3125q-0.296875 -0.578125 1.0625 -2.15625q1.375 -1.578125 4.03125 -3.59375q2.671875 -2.015625 5.984375 -3.890625q3.46875 -2.734375 6.703125 -2.953125q3.234375 -0.21875 3.8125 1.359375q0 0.4375 1.65625 0.21875q1.65625 -0.21875 3.890625 -0.71875q2.234375 -0.5 3.953125 -0.78125q0.71875 -0.875 3.375 -1.375q2.671875 -0.5 6.28125 -0.9375q1.875 0.140625 3.8125 0.078125q1.9375 -0.078125 3.375 -0.21875q1.453125 -0.140625 1.453125 -0.140625q1.0 -0.296875 2.578125 0.578125q1.59375 0.859375 2.75 3.453125q1.0 2.59375 -1.015625 4.109375q-2.015625 1.5 -7.921875 2.21875q-4.3125 0.578125 -7.265625 0.9375q-2.953125 0.359375 -6.125 0.875q-3.15625 0.5 -8.203125 1.640625q-3.59375 0.71875 -5.984375 1.453125q-2.375 0.71875 -4.109375 2.375q-1.71875 1.65625 -3.875 4.96875q-1.0 0.71875 -2.59375 3.75q-1.578125 3.015625 -3.171875 6.03125q-4.03125 5.625 -6.625 9.21875q-2.578125 3.59375 -2.015625 4.328125q0 0 1.734375 0.4375q1.734375 0.421875 2.3125 0.421875q1.4375 -0.71875 3.515625 -1.0q2.09375 -0.296875 3.390625 -0.59375q8.921875 -2.296875 13.75 -3.515625q4.828125 -1.234375 7.203125 -1.796875q2.375 -0.578125 3.8125 -0.734375q2.015625 -1.578125 3.953125 -0.28125q1.953125 1.296875 3.109375 3.59375q0.71875 2.015625 0 3.3125q-0.71875 1.296875 -3.828125 2.390625q-3.09375 1.078125 -9.0 2.59375q-5.890625 1.5 -15.265625 4.09375q-7.90625 2.296875 -13.3125 2.734375q-5.40625 0.4375 -5.109375 -2.453125q-1.015625 -0.5625 -2.234375 1.3125q-1.21875 1.859375 -2.3125 5.0312576q-1.078125 3.171875 -1.875 6.765625q-0.78125 3.59375 -1.0 6.703125q-0.21875 3.09375 0.359375 4.671875q1.15625 3.3125 3.234375 5.40625q2.09375 2.078125 7.0 3.515625q2.875 0.15625 5.609375 0.453125q2.734375 0.28125 6.1875 -1.171875q8.5 -1.4375 12.890625 -3.015625q4.390625 -1.578125 5.109375 -2.15625q1.15625 -0.578125 1.515625 -0.796875q0.359375 -0.21875 1.078125 -0.21875q-0.421875 0.71875 0.296875 0q0.71875 -0.71875 2.296875 -2.015625q2.015625 -1.875 4.75 -2.953125q2.734375 -1.078125 4.828125 -1.359375q2.09375 -0.296875 2.234375 0.421875q0.859375 1.4375 -0.515625 4.1875q-1.359375 2.734375 -4.53125 5.828125q-3.171875 3.09375 -7.921875 5.828125q-7.625 4.03125 -16.5625 5.6875q-8.921875 1.65625 -15.96875 1.796875zm58.88591 3.171875q-1.71875 0 -2.875 -1.875q-0.859375 -0.859375 -1.375 -2.515625q-0.5 -1.65625 0.359375 -5.6875q0.875 -4.03125 3.609375 -12.234375q1.4375 -5.484375 2.296875 -8.0q0.875 -2.515625 0.875 -3.671875q0 -1.578125 0.359375 -2.65625q0.359375 -1.09375 0.359375 -2.09375q0.859375 0 1.71875 -1.578125q0.859375 -1.59375 1.4375 -4.3281326q0.578125 -2.453125 1.078125 -3.953125q0.515625 -1.515625 0.515625 -2.09375q0.71875 -1.15625 1.5 -3.59375q0.796875 -2.453125 2.53125 -5.90625q1.140625 -4.328125 2.578125 -9.0q1.453125 -4.6875 2.953125 -8.78125q1.515625 -4.109375 2.53125 -6.421875q1.578125 -4.453125 2.4375 -6.25q0.875 -1.8125 0.015625 -2.390625q-1.015625 -0.71875 -0.59375 -2.875q0.4375 -2.15625 3.03125 -4.3125q1.59375 -1.875 3.171875 -2.671875q1.578125 -0.796875 3.8125 -0.796875q2.234375 0 5.6875 0.296875q2.59375 0.140625 5.546875 0.140625q2.953125 0 3.671875 0q1.296875 0.578125 3.171875 1.296875q1.875 0.71875 3.375 1.296875q1.515625 0.578125 1.515625 1.015625q0 0.859375 0.640625 1.078125q0.65625 0.203125 1.375 0.359375q1.015625 0 2.953125 1.578125q1.953125 1.578125 3.96875 3.96875q2.015625 2.375 3.015625 4.8125q1.15625 2.453125 1.875 4.609375q0.71875 2.15625 0 6.1875q-0.140625 2.171875 -0.65625 4.328125q-0.5 2.15625 -1.078125 2.875q-0.859375 0.578125 -1.578125 1.453125q-0.71875 0.859375 -0.71875 1.578125q0 0.578125 -1.078125 2.375q-1.078125 1.796875 -2.671875 4.171875q-1.578125 2.375 -3.53125 4.75q-1.9375 2.375 -3.671875 3.96875q-1.859375 2.296875 -4.390625 4.3125q-2.515625 2.015625 -4.53125 3.3125q-3.75 1.7343826 -8.359375 3.3906326q-4.59375 1.65625 -8.84375 2.734375q-4.25 1.078125 -6.984375 0.9375q-4.1875 0.578125 -5.40625 1.078125q-1.21875 0.5 -1.796875 2.515625q-0.71875 1.875 -1.375 3.890625q-0.640625 2.015625 -0.640625 2.734375q-0.296875 0.578125 -1.375 3.390625q-1.078125 2.796875 -2.296875 6.546875q-1.21875 3.75 -2.3125 7.421875q-1.078125 3.671875 -1.65625 6.109375q-0.5625 2.015625 -1.71875 2.59375q-1.15625 0.578125 -2.453125 0.578125zm18.71875 -45.796883q0.578125 0.578125 4.171875 0.15625q3.609375 -0.4375 8.078125 -2.171875q2.875 -1.0 5.828125 -2.4375q2.953125 -1.453125 5.6875 -3.171875q1.4375 -1.015625 3.875 -3.234375q2.453125 -2.234375 5.34375 -5.84375q0.421875 -0.71875 1.5 -2.796875q1.09375 -2.09375 1.953125 -3.96875q1.296875 -2.015625 2.59375 -5.96875q1.296875 -3.96875 0.578125 -6.5625q-0.71875 -3.734375 -3.46875 -6.75q-2.734375 -3.03125 -6.609375 -4.1875q-3.171875 -0.578125 -5.265625 -0.578125q-2.078125 0 -4.53125 0.4375q-2.3125 0.71875 -3.328125 2.015625q-1.0 1.296875 -2.71875 5.46875q-1.015625 2.015625 -2.890625 5.90625q-1.859375 3.890625 -3.15625 7.484375q-2.59375 9.5 -4.90625 15.265625q-2.296875 5.765625 -2.875 7.34375q0.140625 1.578125 -0.15625 2.234375q-0.28125 0.640625 0.296875 1.359375z" fill-rule="nonzero"/></g></svg>