<?xml version="1.0" standalone="no"?>
<!DOCTYPE svg PUBLIC "-//W3C//DTD SVG 20010904//EN"
 "http://www.w3.org/TR/2001/REC-SVG-20010904/DTD/svg10.dtd">
<svg version="1.0" xmlns="http://www.w3.org/2000/svg"
 width="185.000000pt" height="185.000000pt" viewBox="0 0 50.000000 50.000000"
 preserveAspectRatio="xMidYMid meet">

<g transform="translate(0.000000,50.000000) scale(0.100000,-0.100000)"
fill="#e0e0e0" stroke="none">
<path d="M247 454 c-4 -4 -7 -17 -7 -29 0 -13 -9 -26 -22 -33 -20 -9 -15 -11
32 -11 47 0 52 2 33 11 -25 12 -32 48 -9 48 7 0 16 -9 19 -21 8 -31 52 -22 52
11 0 23 -4 25 -45 28 -25 2 -49 0 -53 -4z"/>
<path d="M102 337 c-20 -21 -22 -34 -22 -143 0 -113 1 -122 23 -142 21 -20 34
-22 148 -22 118 0 127 1 147 23 20 21 22 34 22 143 0 113 -1 122 -23 142 -21
20 -34 22 -148 22 -118 0 -127 -1 -147 -23z m105 -97 c0 -22 -5 -27 -27 -27
-22 0 -27 5 -27 27 0 22 5 27 27 27 22 0 27 -5 27 -27z m138 0 c0 -18 -6 -26
-23 -28 -13 -2 -25 3 -28 12 -10 26 4 48 28 44 17 -2 23 -10 23 -28z m-7 -114
c27 -16 7 -21 -88 -21 -97 0 -116 5 -85 22 17 10 157 9 173 -1z"/>
<path d="M47 253 c-4 -3 -7 -14 -7 -24 0 -9 -6 -20 -12 -23 -10 -5 -10 -7 0
-12 6 -3 12 -14 12 -24 0 -10 5 -22 10 -25 6 -4 10 17 10 54 0 62 -1 66 -13
54z"/>
<path d="M440 200 c0 -38 4 -59 10 -55 6 3 10 15 10 25 0 10 6 21 13 24 10 5
10 7 0 12 -7 3 -13 14 -13 24 0 10 -4 22 -10 25 -6 4 -10 -17 -10 -55z"/>
</g>
</svg>
